# xmcd CD database file
#
# Track frame offsets:
#	150
#	27875
#	64347
#	84150
#	118329
#	144616
#	176752
#	208413
#
# Disc length: 3255 seconds
#
# Revision: 0
# Processed by: cddbd v1.5.2PL0 Copyright (c) Steve Scherf et al.
# Submitted via: CDex 1.70beta2
#
DISCID=770cb508
DTITLE=Jim Roberts Saxtet - Swingin'
DYEAR=2007
DGENRE=Jazz
TTITLE0=Jumpin' At The Woodside
TTITLE1=Sunshine Jumped With The Moonbeams
TTITLE2=A Child Is Born
TTITLE3=Back Home Again In Indiana
TTITLE4=A Remark You Made
TTITLE5=Watermelon Man
TTITLE6=Seaside Blue
TTITLE7=I Have Dreams That Never Die
EXTD=YEAR: 2007
EXTT0=
EXTT1=
EXTT2=
EXTT3=
EXTT4=
EXTT5=
EXTT6=
EXTT7=
PLAYORDER=
